<?xml version="1.0" encoding="utf-8"?>
<!-- Generator: Adobe Illustrator 19.0.0, SVG Export Plug-In . SVG Version: 6.00 Build 0)  -->
<svg version="1.1" id="Layer_1" xmlns="http://www.w3.org/2000/svg" xmlns:xlink="http://www.w3.org/1999/xlink" x="0px" y="0px"
	 viewBox="0 0 595.3 841.9" style="enable-background:new 0 0 595.3 841.9;" xml:space="preserve">
<style type="text/css">
	.st0{fill:#FFFFFF;}
	.st1{fill:#A3FF73;}
	.st2{fill:#BC9F71;}
</style>
<g id="XMLID_31_">
	<path id="XMLID_33_" class="st0" d="M173,411L173,411c0.3-4.2,3.9-7.2,8-6.7l26.4,3.3c2.9,0.4,5,2.9,4.8,5.8c0,0,0,0.1,0,0.1
		c-0.2,2.9-2.6,5.1-5.5,5.1h-26.5C176,418.7,172.7,415.1,173,411z M216.6,378.4L193,366.1c-3.7-1.9-4.9-6.5-2.8-10l0.1-0.2
		c2.1-3.5,6.8-4.5,10.2-2.1l21.8,15.3c2.4,1.7,3,4.9,1.5,7.3c0,0,0,0.1-0.1,0.1C222.3,378.9,219.1,379.8,216.6,378.4z M357.4,368.8
		C357.4,368.7,357.3,368.7,357.4,368.8c-1.9-2.4-1.6-5.6,0.6-7.6l19.9-17.6c3.1-2.7,7.8-2.3,10.4,0.9l0.1,0.1
		c2.5,3.3,1.8,8-1.6,10.3l-21.9,15C362.4,371.6,359.2,371.1,357.4,368.8z M244.1,347.4l-15.1-21.9c-2.3-3.4-1.3-8.1,2.2-10.2l0.1,0
		c3.6-2.1,8.2-0.8,10.1,2.9l12.2,23.5c1.3,2.6,0.4,5.7-2,7.2c0,0-0.1,0-0.1,0.1C248.9,350.5,245.7,349.8,244.1,347.4z M326.8,344.6
		C326.8,344.6,326.8,344.6,326.8,344.6c-2.7-1.2-4-4.3-3-7l9.4-24.9c1.5-3.9,5.9-5.7,9.6-4l0.2,0.1c3.8,1.7,5.3,6.2,3.3,9.9
		l-12.5,23.4C332.6,344.8,329.5,345.8,326.8,344.6z M282.7,332.7l-3.2-26.3c-0.5-4.1,2.6-7.8,6.7-8.1c0,0,0.1,0,0.1,0
		c3.7-0.2,6.8,2.7,6.8,6.4v27.8c0,2.6-2.1,4.8-4.7,4.9c0,0-0.1,0-0.1,0C285.6,337.7,283.1,335.6,282.7,332.7z"/>
</g>
<g id="XMLID_37_">
	<path id="XMLID_39_" class="st1" d="M419.4,372.6c0,0-64.5,15.3-93.8,56.8c-16.1,22.9-23.2,40.1-21.1,77.2
		c0.7,12.6,0.5,18-1.1,23.6c3.6-2.7,18.7-15.2,27-26c9-11.8,21.8-35.8,21.8-35.8s-8.2,24.1-19.5,39.5c-6.9,9.4-22.4,24.4-24.7,26.8
		c19.2-4.6,74.1-20.7,92.3-59.2C423.3,427.1,419.4,372.6,419.4,372.6z"/>
	<path id="XMLID_38_" class="st1" d="M257.3,526.3c-6-7.2-12-21.9-12-21.9s7.5,13.7,15.9,19.7c4.4,3.2,8.4,5.5,11.1,7
		c3.6-7.6,14.6-34.7-0.7-58.3c-14.3-22-91.7-40.8-91.7-40.8s2.9,42.9,20.6,71.5c12.3,19.8,47.8,26.7,63.3,28.8
		C261.5,530.6,259.2,528.6,257.3,526.3z"/>
	<circle id="XMLID_7_" class="st2" cx="288.3" cy="534.7" r="9.7"/>
</g>
</svg>
